<?xml version="1.0" encoding="UTF-8" standalone="no"?><!DOCTYPE svg PUBLIC "-//W3C//DTD SVG 1.1//EN" "http://www.w3.org/Graphics/SVG/1.1/DTD/svg11.dtd"><svg width="100%" height="100%" viewBox="0 0 480 480" version="1.1" xmlns="http://www.w3.org/2000/svg" xmlns:xlink="http://www.w3.org/1999/xlink" xml:space="preserve" xmlns:serif="http://www.serif.com/" style="fill-rule:evenodd;clip-rule:evenodd;stroke-linejoin:round;stroke-miterlimit:2;"><path d="M233.858,138.22c0.901,1.735 1.705,3.564 2.396,5.478c6.445,17.859 0.61,36.351 -13.02,41.27c-13.631,4.919 -29.929,-5.586 -36.374,-23.445c-1.251,-3.465 -2.039,-6.955 -2.397,-10.364c14.244,-6.194 31.049,-10.693 49.396,-12.938Z"/><path d="M193.754,333.024c-0.443,0.898 -0.637,1.981 -0.596,3.228c-0.939,-0.855 -1.835,-1.761 -2.685,-2.714c1.124,-0.199 2.219,-0.37 3.281,-0.514Z"/><ellipse cx="286.305" cy="183.032" rx="18.25" ry="12.5"/><path d="M227.155,272.144c8.009,-3.837 27.644,3.11 47.03,17.198c6.326,4.597 11.937,9.454 16.585,14.218c-8.68,9.645 -11.555,21.146 -6.222,27.701c0.651,0.801 1.4,1.496 2.232,2.089c-9.21,-2.558 -20.834,-8.413 -32.37,-16.796c-0.87,-0.632 -1.727,-1.269 -2.569,-1.911c-0.034,-0.769 -0.113,-1.527 -0.236,-2.273c0.168,-1.479 0.255,-2.984 0.255,-4.51c0,-16.711 -10.383,-30.882 -24.706,-35.715Z"/><path d="M203.109,356.615c-8.979,8.371 -22.853,17.644 -39.296,25.701c-11.366,5.569 -22.439,9.812 -32.196,12.551c-1.296,-2.145 -2.715,-4.305 -4.25,-6.455c-5.024,-7.035 -10.554,-12.926 -15.844,-17.184c7.751,-6.542 18.194,-13.46 30.292,-19.807c28.187,-0.169 50.803,-4.659 50.803,-10.166c0,-2.238 -3.736,-4.308 -10.063,-5.989c2.77,-0.708 5.418,-1.285 7.918,-1.727c0.85,0.953 1.746,1.859 2.685,2.714c0.157,4.761 3.743,11.917 9.951,20.363Z"/><path d="M87.775,341.711c-3.316,-3.262 -6.628,-7.002 -9.792,-11.129c-14.257,-18.595 -20.14,-38.056 -13.13,-43.431c7.01,-5.375 24.277,5.358 38.534,23.953c5.523,7.203 9.789,14.536 12.536,21.13c-16.754,1.699 -28.2,5.102 -28.2,9.02c0,0.153 0.017,0.305 0.052,0.457Z"/><path d="M290.77,303.559c1.596,-1.773 3.388,-3.484 5.361,-5.089c12.706,-10.338 28.147,-12.431 34.46,-4.671c6.313,7.76 1.123,22.452 -11.583,32.79c-11.395,9.271 -24.99,11.911 -32.228,6.76c8.249,2.292 14.561,1.939 17.14,-1.609c3.878,-5.337 -1.73,-16.477 -13.15,-28.181Z"/><path d="M290.318,392.294c3.964,-0.665 8.209,-1.065 12.626,-1.148c22.098,-0.416 40.19,7.243 40.376,17.095c0.168,8.922 -14.408,16.601 -33.576,18.28c1.492,-6.362 -6.075,-19.272 -19.426,-34.226Z"/><path d="M131.617,394.867c9.517,15.752 12.419,30.712 6.242,35.123c-7.018,5.012 -23.114,-5.481 -35.923,-23.417c-12.809,-17.936 -17.51,-36.566 -10.492,-41.578c4.265,-3.046 11.883,-0.365 20.079,6.233c-10.819,9.132 -16.391,17.533 -13.893,22.632c2.935,5.991 16.297,5.971 33.987,1.006Z"/><path d="M194.935,277.949c5.954,-4.755 13.37,-7.577 21.405,-7.577c3.77,0 7.404,0.621 10.814,1.772c-1.025,0.491 -1.86,1.159 -2.479,2.011c-2.949,4.058 -0.413,11.472 5.993,19.937c-1.102,-0.133 -2.226,-0.202 -3.369,-0.202c-13.556,0 -24.561,9.679 -24.561,21.6c0,8.086 5.064,15.141 12.552,18.843c-10.37,-4.587 -18.025,-5.681 -20.915,-2.26c-0.244,0.289 -0.451,0.607 -0.621,0.952c-1.062,0.144 -2.157,0.316 -3.281,0.514c-5.984,-6.711 -9.653,-15.747 -9.653,-25.68c0,-4.816 0.862,-9.421 2.433,-13.652c5.696,-5.261 9.764,-11.003 11.682,-16.258Z"/><path d="M347.392,156.282c22.3,12.198 36.106,29.065 36.106,47.687c0,37.179 -55.034,67.363 -122.82,67.363c-13.437,0 -26.372,-1.186 -38.477,-3.377c5.177,0.644 10.47,0.977 15.851,0.977c61.228,0 110.937,-43.146 110.937,-96.291c0,-5.576 -0.547,-11.042 -1.598,-16.359Z"/><path d="M284.507,137.875c-1.118,-11.474 3.057,-21.776 11.64,-26.016c12.193,-6.022 28.696,2.459 36.83,18.927c3.402,6.888 4.805,14.09 4.393,20.578c-15.113,-6.639 -33.144,-11.36 -52.863,-13.49Z"/><path d="M184.462,151.158c-1.489,-14.16 4.432,-26.941 15.418,-30.906c12.17,-4.392 26.467,3.512 33.978,17.967c-18.347,2.245 -35.151,6.744 -49.396,12.938Z"/><path d="M151.699,67.527c0.104,-3.303 1.133,-5.785 3.12,-6.813c1.256,-0.65 2.766,-0.651 4.403,-0.103c2.935,5.734 5.638,14.829 7.264,25.303c-0.218,-0.208 -0.436,-0.417 -0.654,-0.628c-6.302,-6.108 -11.239,-12.444 -14.133,-17.759Z"/><path d="M154.88,54.862c6.032,1.043 15.676,7.051 24.921,16.012c4.957,4.804 9.069,9.75 12.007,14.228c-5.304,2.116 -10.383,4.586 -15.198,7.373c0.788,-4.442 -0.6,-11.128 -4.052,-17.802c-3.781,-7.311 -9.005,-12.61 -13.337,-14.061c-1.425,-2.784 -2.905,-4.777 -4.342,-5.75Z"/><path d="M281.129,83.89c-2.779,-3.355 -3.34,-10.336 -1.054,-17.613c2.338,-7.441 6.941,-12.924 11.22,-13.917c-4.265,3.095 -6.149,15.118 -4.221,28.963c0.027,0.196 0.055,0.391 0.084,0.585c-1.035,1.09 -2.086,2.119 -3.145,3.082c-0.954,-0.378 -1.916,-0.745 -2.884,-1.099Z"/><path d="M299.455,55.936c3.278,4.765 6.139,13.021 7.476,22.621c0.978,7.026 0.975,13.582 0.177,18.741c-5.909,-4.087 -12.31,-7.662 -19.111,-10.647c-0.082,-0.395 -0.162,-0.793 -0.239,-1.194c3.957,-1.579 8.005,-6.756 10.148,-13.578c1.148,-3.655 1.578,-7.235 1.37,-10.318c0.469,-2.136 0.542,-4.05 0.179,-5.625Z"/><path d="M154.819,60.715c4.581,-2.369 12.53,3.885 17.74,13.958c5.209,10.073 5.719,20.175 1.138,22.544c-4.581,2.369 -12.53,-3.885 -17.74,-13.958c-5.209,-10.073 -5.719,-20.175 -1.138,-22.544Z" style="fill:#d5ff27;fill-opacity:0;"/><path d="M294.22,52.434c4.921,1.546 6.573,10.259 3.687,19.445c-2.886,9.186 -9.224,15.389 -14.145,13.843c-4.921,-1.546 -6.573,-10.259 -3.687,-19.445c2.886,-9.186 9.224,-15.389 14.145,-13.843Z" style="fill:#d5ff27;fill-opacity:0;"/><ellipse cx="274.177" cy="222.266" rx="46.878" ry="17.734" style="fill:#d5ff27;fill-opacity:0;"/><path d="M147.31,348.634c31.973,-15.666 61.629,-20.839 66.183,-11.544c4.554,9.295 -17.706,29.56 -49.68,45.226c-31.973,15.666 -61.629,20.839 -66.183,11.544c-4.554,-9.295 17.706,-29.56 49.68,-45.226Z" style="fill:#d5ff27;fill-opacity:0;"/><ellipse cx="216.34" cy="307.859" rx="35.52" ry="37.487" style="fill:#d5ff27;fill-opacity:0;"/><ellipse cx="140.17" cy="341.254" rx="52.447" ry="10.171" style="fill:#d5ff27;fill-opacity:0;"/><ellipse cx="227.299" cy="315.49" rx="24.561" ry="21.6" style="fill:#d5ff27;fill-opacity:0;"/><path d="M296.147,111.859c12.193,-6.022 28.696,2.459 36.83,18.927c8.134,16.469 4.838,34.728 -7.355,40.75c-12.193,6.022 -28.696,-2.459 -36.83,-18.927c-8.134,-16.469 -4.838,-34.728 7.355,-40.75Z" style="fill:#d5ff27;fill-opacity:0;"/><path d="M293.059,51.623c5.48,-0.763 11.696,11.305 13.872,26.934c2.177,15.628 -0.505,28.936 -5.985,29.699c-5.48,0.763 -11.696,-11.305 -13.872,-26.934c-2.177,-15.628 0.505,-28.936 5.985,-29.699Z" style="fill:#d5ff27;fill-opacity:0;"/><path d="M179.801,70.874c12.662,12.273 19.813,25.466 15.959,29.443c-3.855,3.977 -17.265,-2.758 -29.927,-15.031c-12.662,-12.273 -19.813,-25.466 -15.959,-29.443c3.855,-3.977 17.265,2.758 29.927,15.031Z" style="fill:#d5ff27;fill-opacity:0;"/><ellipse cx="238.052" cy="172.641" rx="110.937" ry="96.291" style="fill:#d5ff27;fill-opacity:0;"/><path d="M194.376,332.073c6.535,-7.737 37.456,7.619 69.007,34.269c31.551,26.65 51.86,54.568 45.325,62.305c-6.535,7.737 -37.456,-7.619 -69.007,-34.269c-31.551,-26.65 -51.86,-54.568 -45.325,-62.305Z" style="fill:#d5ff27;fill-opacity:0;"/><path d="M194.426,265.535c5.623,8.222 -2.762,23.754 -18.713,34.663c-15.951,10.908 -33.467,13.089 -39.09,4.867c-5.623,-8.222 2.762,-23.754 18.713,-34.663c15.951,-10.908 33.467,-13.089 39.09,-4.867Z" style="fill:#d5ff27;fill-opacity:0;"/><path d="M134.677,292.656c7.425,-6.358 23.198,-0.139 35.201,13.878c12.003,14.018 15.719,30.56 8.294,36.918c-7.425,6.358 -23.198,0.139 -35.201,-13.878c-12.003,-14.018 -15.719,-30.56 -8.294,-36.918Z" style="fill:#d5ff27;fill-opacity:0;"/><path d="M330.591,293.799c6.313,7.76 1.123,22.452 -11.583,32.79c-12.706,10.338 -28.147,12.431 -34.46,4.671c-6.313,-7.76 -1.123,-22.452 11.583,-32.79c12.706,-10.338 28.147,-12.431 34.46,-4.671Z" style="fill:#d5ff27;fill-opacity:0;"/><path d="M224.676,274.155c5.457,-7.509 27.641,-0.704 49.509,15.187c21.868,15.891 35.192,34.889 29.735,42.398c-5.457,7.509 -27.641,0.704 -49.509,-15.187c-21.868,-15.891 -35.192,-34.889 -29.735,-42.398Z" style="fill:#d5ff27;fill-opacity:0;"/><path d="M91.444,364.995c7.018,-5.012 23.114,5.481 35.923,23.417c12.809,17.936 17.51,36.566 10.492,41.578c-7.018,5.012 -23.114,-5.481 -35.923,-23.417c-12.809,-17.936 -17.51,-36.566 -10.492,-41.578Z" style="fill:#d5ff27;fill-opacity:0;"/><g><ellipse cx="260.679" cy="203.969" rx="122.82" ry="67.363" style="fill:#d5ff27;fill-opacity:0;"/></g><path d="M64.853,287.151c7.01,-5.375 24.277,5.358 38.534,23.953c14.257,18.595 20.14,38.056 13.13,43.431c-7.01,5.375 -24.277,-5.358 -38.534,-23.953c-14.257,-18.595 -20.14,-38.056 -13.13,-43.431Z" style="fill:#d5ff27;fill-opacity:0;"/><path d="M343.32,408.241c0.186,9.851 -17.605,18.187 -39.703,18.604c-22.098,0.416 -40.19,-7.243 -40.376,-17.095c-0.186,-9.851 17.605,-18.187 39.703,-18.604c22.098,-0.416 40.19,7.243 40.376,17.095Z" style="fill:#d5ff27;fill-opacity:0;"/><path d="M152.596,54.214c5.023,-0.729 11.334,14.051 14.083,32.987c2.749,18.935 0.903,34.9 -4.12,35.63c-5.023,0.729 -11.334,-14.051 -14.083,-32.987c-2.749,-18.935 -0.903,-34.9 4.12,-35.63Z" style="fill:#d5ff27;fill-opacity:0;"/><path d="M297.733,52.864c4.713,4.189 0.598,16.524 -9.184,27.528c-9.781,11.005 -21.548,16.539 -26.261,12.35c-4.713,-4.189 -0.598,-16.524 9.184,-27.528c9.781,-11.005 21.548,-16.539 26.261,-12.35Z" style="fill:#d5ff27;fill-opacity:0;"/><path d="M199.88,120.252c13.631,-4.919 29.929,5.586 36.374,23.445c6.445,17.859 0.61,36.351 -13.02,41.27c-13.631,4.919 -29.929,-5.586 -36.374,-23.445c-6.445,-17.859 -0.61,-36.351 13.02,-41.27Z" style="fill:#d5ff27;fill-opacity:0;"/><ellipse cx="286.305" cy="183.032" rx="18.25" ry="12.5" style="fill:#d5ff27;fill-opacity:0;"/></svg>